<?xml version="1.0" encoding="utf-8"?>
<!-- Generator: Adobe Illustrator 25.0.0, SVG Export Plug-In . SVG Version: 6.00 Build 0)  -->
<svg version="1.1" id="Layer_1" xmlns="http://www.w3.org/2000/svg" xmlns:xlink="http://www.w3.org/1999/xlink" x="0px" y="0px"
	 viewBox="0 0 491.5 491.5" style="enable-background:new 0 0 491.5 491.5;" xml:space="preserve">
<g>
	<path d="M97.6,361.8c13.8,0,25,11.2,25,25c0,2.6,2.2,4.8,4.8,4.8c2.7,0,4.8-2.1,4.8-4.8c0-19.1-15.5-34.6-34.6-34.6
		c-19.1,0-34.6,15.5-34.6,34.6c0,17.4,13,31.9,29.8,34.2v-9.7c-11.5-2.2-20.2-12.4-20.2-24.5C72.6,373,83.8,361.8,97.6,361.8z"/>
	<path d="M97.6,267.8c13.8,0,25,11.2,25,25c0,2.7,2.2,4.8,4.8,4.8c2.7,0,4.8-2.2,4.8-4.8c0-19.1-15.5-34.6-34.6-34.6
		c-19.1,0-34.6,15.5-34.6,34.6c0,17.4,13,31.9,29.8,34.2v-9.7c-11.5-2.2-20.2-12.4-20.2-24.5C72.6,279,83.8,267.8,97.6,267.8z"/>
	<path d="M122.5,198.8c0,2.6,2.2,4.8,4.8,4.8c2.7,0,4.8-2.2,4.8-4.8c0-19.1-15.5-34.6-34.6-34.6c-19.1,0-34.6,15.5-34.6,34.6
		c0,17.4,13,31.9,29.8,34.2v-9.7c-11.5-2.2-20.2-12.4-20.2-24.5c0-13.8,11.2-25,25-25C111.3,173.8,122.5,185,122.5,198.8z"/>
	<path d="M92.8,139v-9.7c-11.5-2.2-20.2-12.4-20.2-24.5c0-13.8,11.2-25,25-25c13.8,0,25,11.2,25,25c0,2.6,2.2,4.8,4.8,4.8
		c2.7,0,4.8-2.2,4.8-4.8c0-19.1-15.5-34.6-34.6-34.6C78.5,70.2,63,85.7,63,104.8C63,122.2,76,136.6,92.8,139z"/>
	<path d="M411.5,35.5l-301.6,0v0c-4.1,0-7.4,3.3-7.4,7.4v17.9c22.1,2.4,39.4,21.2,39.4,43.9c0,7.9-6.5,14.4-14.4,14.4
		c-7.9,0-14.4-6.5-14.4-14.4c0-6.8-4.4-12.6-10.6-14.6l0,64.7c22.1,2.4,39.4,21.2,39.4,43.9c0,7.9-6.5,14.4-14.4,14.4
		c-7.9,0-14.4-6.5-14.4-14.4c0-6.8-4.4-12.6-10.6-14.6l0,64.7c22.1,2.4,39.4,21.2,39.4,43.9c0,7.9-6.5,14.4-14.4,14.4
		c-7.9,0-14.4-6.5-14.4-14.4c0-6.8-4.4-12.6-10.6-14.6c0,21.6,0,43.1,0,64.7c22.1,2.4,39.4,21.2,39.4,43.9c0,7.9-6.5,14.4-14.4,14.4
		c-7.9,0-14.4-6.5-14.4-14.4c0-6.8-4.4-12.6-10.6-14.6c0,25.5,0,50.9,0,76.4c0,4.1,3.3,7.4,7.4,7.4h301.6c4.1,0,7.4-3.3,7.4-7.4
		l0-405.6C418.9,38.9,415.6,35.5,411.5,35.5z M260.6,79.4c52.6,0,95.4,42.8,95.4,95.4c0,53-43.2,95.4-95.4,95.4
		c-52.2,0-95.4-42.4-95.4-95.4C165.2,122.2,208,79.4,260.6,79.4z M351.2,412.1H170c-2.7,0-4.8-2.1-4.8-4.8c0-2.7,2.1-4.8,4.8-4.8
		h181.2c2.7,0,4.8,2.1,4.8,4.8C356,410,353.9,412.1,351.2,412.1z M351.2,370.1H170c-2.7,0-4.8-2.2-4.8-4.8c0-2.7,2.1-4.8,4.8-4.8
		l181.2,0c2.7,0,4.8,2.2,4.8,4.8C356,368,353.9,370.1,351.2,370.1z M351.2,328.1H170c-2.7,0-4.8-2.1-4.8-4.8c0-2.7,2.1-4.8,4.8-4.8
		l181.2,0c2.7,0,4.8,2.1,4.8,4.8C356,326,353.9,328.1,351.2,328.1z"/>
	<path d="M212.9,183.6l95.5,0c10.2,0,18.5,8.2,19.3,19l1.7,23.6c10.7-14.3,17.1-32.1,17.1-51.3c0-47.3-38.5-85.8-85.8-85.8
		c-47.3,0-85.8,38.5-85.8,85.8c0,19.2,6.4,37,17.1,51.3l1.7-23.6C194.3,191.7,202.6,183.6,212.9,183.6z M260.6,104.1
		c15.8,0,31.8,10.1,31.8,29.4c0,20.9-11.9,42.6-31.8,42.6c-19.9,0-31.8-21.6-31.8-42.6C228.8,114.2,244.8,104.1,260.6,104.1z"/>
	<path d="M318.1,203.2c-0.4-5.7-4.6-10-9.7-10l-95.5,0c-5.1,0-9.3,4.3-9.7,10l-2.3,33c5.5,5.4,11.7,10,18.5,13.7l1.2-14.9
		c0.2-2.6,2.5-4.6,5.2-4.4c2.6,0.2,4.6,2.5,4.4,5.2l-1.5,18.6c9.9,4,20.7,6.2,32.1,6.2c11.3,0,22.2-2.2,32.1-6.2l-1.5-18.6
		c-0.2-2.7,1.7-5,4.4-5.2c2.6-0.2,5,1.7,5.2,4.4l1.2,14.9c6.8-3.7,13-8.4,18.5-13.7h0L318.1,203.2z"/>
	<path d="M260.6,166.5c15.2,0,22.2-19.7,22.2-33c0-6.2-2.2-11.1-6.7-14.7c-4-3.2-9.7-5.1-15.6-5.1c-10.7,0-22.2,6.2-22.2,19.8
		C238.4,146.8,245.5,166.5,260.6,166.5z"/>
</g>
</svg>
